<svg width="1360" height="411" viewBox="0 0 1360 411" fill="none" xmlns="http://www.w3.org/2000/svg">
<g clip-path="url(#clip0_2633_66)">
<path d="M495 393C474.667 393 459.333 387.333 449 376C439 365 434 351.333 434 335C434 320 437.667 304.167 445 287.5C452.667 270.833 462.667 255.167 475 240.5C487.667 225.833 501.5 214 516.5 205C531.5 195.667 546.333 191 561 191C568.667 191 575.667 193 582 197C588.667 201 592 209.167 592 221.5C592 234.167 588.167 246.167 580.5 257.5C573.167 268.5 563.333 278.333 551 287C539 295.667 525.667 302.833 511 308.5C496.667 313.833 482.333 317.167 468 318.5C467.333 321.833 466.833 325 466.5 328C466.167 331 466 333.833 466 336.5C466 341.5 466.5 346.5 467.5 351.5C468.833 356.5 471 361.167 474 365.5C477 369.5 481 372.667 486 375C491.333 377.333 497.833 378.5 505.5 378.5C519.833 378.5 534 374.5 548 366.5C562 358.167 575 347.333 587 334C599 320.667 609.167 306 617.5 290L623.5 294.5C614.5 314.5 603 331.833 589 346.5C575.333 361.167 560.333 372.5 544 380.5C528 388.833 511.667 393 495 393ZM470.5 309C479.5 306 489.667 301.667 501 296C512.333 290 523.167 283 533.5 275C544.167 267 552.833 258.167 559.5 248.5C566.5 238.833 570 228.667 570 218C570 214.333 569.333 211.5 568 209.5C566.667 207.5 563.833 206.5 559.5 206.5C551.5 206.5 543 209.667 534 216C525 222 516.333 230 508 240C499.667 250 492.167 261 485.5 273C478.833 285 473.833 297 470.5 309ZM649.004 386C634.671 386 624.337 381 618.004 371C612.004 361.333 609.004 349.167 609.004 334.5C609.004 318.5 612.004 299.5 618.004 277.5C624.004 255.5 631.837 232.333 641.504 208C651.504 183.667 662.337 160 674.004 137C685.671 113.667 697.337 92.5 709.004 73.5C720.671 54.5 731.337 39.3333 741.004 28C751.004 16.6666 758.837 11 764.504 11C768.171 11 771.171 13.1667 773.504 17.5C775.837 21.5 777.671 26.5 779.004 32.5C780.337 38.1667 781.004 43.3333 781.004 48C781.004 57 778.671 68.8333 774.004 83.5C769.671 97.8333 763.337 114 755.004 132C747.004 149.667 737.337 167.667 726.004 186C715.004 204 702.837 221.333 689.504 238C676.504 254.667 662.671 269 648.004 281C646.004 290 644.337 298.833 643.004 307.5C642.004 315.833 641.504 323.833 641.504 331.5C641.504 344.5 643.337 354.167 647.004 360.5C650.671 366.833 656.171 370 663.504 370C672.504 370 681.337 366 690.004 358C699.004 350 707.337 340 715.004 328C723.004 315.667 729.837 303 735.504 290L743.004 294C729.671 322.333 715.171 344.833 699.504 361.5C683.837 377.833 667.004 386 649.004 386ZM652.504 264C664.171 252.333 675.504 239 686.504 224C697.504 208.667 707.671 192.833 717.004 176.5C726.671 160.167 735.171 144.333 742.504 129C749.837 113.667 755.504 100 759.504 88C763.504 75.6666 765.504 66.1666 765.504 59.5C765.504 56.1667 765.004 54 764.004 53C763.337 52 762.671 51.5 762.004 51.5C759.337 51.5 754.671 55.8333 748.004 64.5C741.671 72.8333 734.171 84.1667 725.504 98.5C716.837 112.833 708.004 129.167 699.004 147.5C690.004 165.833 681.337 185 673.004 205C665.004 225 658.171 244.667 652.504 264ZM749.668 394.5C739.335 394.5 730.668 391 723.668 384C716.335 377.333 712.668 367 712.668 353C712.668 341 715.335 328.167 720.668 314.5C726.001 300.5 733.335 286.833 742.668 273.5C752.001 259.833 762.501 247.5 774.168 236.5C786.168 225.167 798.668 216.167 811.668 209.5C825.001 202.833 838.168 199.5 851.168 199.5C864.168 199.5 875.001 203 883.668 210C892.335 216.667 896.668 225.667 896.668 237C896.668 245.333 894.335 251 889.668 254C885.335 257 879.501 258.5 872.168 258.5C872.835 255.833 873.335 253 873.668 250C874.335 246.667 874.668 243.667 874.668 241C874.668 233.333 872.835 226.833 869.168 221.5C865.501 215.833 859.168 213 850.168 213C840.835 213 831.335 216.333 821.668 223C812.001 229.333 802.668 238 793.668 249C784.668 259.667 776.668 271.333 769.668 284C762.668 296.667 757.168 309.167 753.168 321.5C749.168 333.833 747.168 344.833 747.168 354.5C747.168 367.5 751.668 374 760.668 374C768.335 374 776.668 370.5 785.668 363.5C794.668 356.167 803.835 347 813.168 336C822.835 324.667 832.001 313 840.668 301C849.335 289 857.001 278 863.668 268C865.001 266 865.835 265 866.168 265C868.168 265.333 870.668 266 873.668 267C877.001 268 879.835 269.333 882.168 271C884.501 272.667 885.668 274.833 885.668 277.5C885.668 280.5 884.168 284.667 881.168 290C878.168 295 874.835 300.833 871.168 307.5C867.501 314.167 864.168 321 861.168 328C858.168 334.667 856.668 341 856.668 347C856.668 352 858.001 357 860.668 362C863.335 366.667 867.668 369 873.668 369C882.668 369 894.501 362.5 909.168 349.5C923.835 336.167 938.668 316.333 953.668 290L958.668 295C951.668 313 942.668 328.833 931.668 342.5C920.668 356.167 908.835 366.833 896.168 374.5C883.835 382.167 871.668 386 859.668 386C847.335 386 838.168 382.333 832.168 375C826.501 367.667 823.668 359.667 823.668 351C823.668 349 823.835 346.833 824.168 344.5C824.501 341.833 824.835 339.167 825.168 336.5C810.835 355.833 797.668 370.333 785.668 380C774.001 389.667 762.001 394.5 749.668 394.5ZM1029.94 384C1018.61 384 1009.61 381 1002.94 375C996.608 369 993.441 361.167 993.441 351.5C993.441 341.5 995.775 331 1000.44 320C1005.11 309 1009.61 298.167 1013.94 287.5C1018.61 276.5 1020.94 266.667 1020.94 258C1020.94 247.333 1017.77 239.5 1011.44 234.5C1005.44 229.167 999.275 224.333 992.941 220C985.275 239.667 977.275 258.333 968.941 276C960.608 293.667 953.775 307 948.441 316L943.941 307.5C948.608 298.833 954.608 286.167 961.941 269.5C969.608 252.833 977.108 233.833 984.441 212.5C981.108 209.167 979.441 205.167 979.441 200.5C979.441 190.5 982.275 182.333 987.941 176C993.608 169.667 997.775 166.5 1000.44 166.5C1004.11 166.5 1006.11 168.167 1006.44 171.5C1007.11 174.5 1007.44 176.833 1007.44 178.5C1007.44 180.167 1006.44 183.5 1004.44 188.5C1002.77 193.167 1001.94 196 1001.94 197C1001.94 201.667 1004.44 206 1009.44 210C1014.77 213.667 1020.77 218 1027.44 223C1034.11 227.667 1039.94 233.5 1044.94 240.5C1050.27 247.167 1052.94 255.833 1052.94 266.5C1052.94 276.5 1050.77 286.667 1046.44 297C1042.44 307.333 1038.27 317.167 1033.94 326.5C1029.94 335.833 1027.94 344 1027.94 351C1027.94 357 1029.44 361 1032.44 363C1035.44 365 1038.94 366 1042.94 366C1050.94 366 1059.11 363.5 1067.44 358.5C1076.11 353.5 1084.44 347.167 1092.44 339.5C1100.44 331.833 1107.61 323.833 1113.94 315.5C1120.27 306.833 1124.94 298.833 1127.94 291.5L1134.44 296.5C1128.11 310.5 1119.44 324.333 1108.44 338C1097.44 351.333 1085.11 362.333 1071.44 371C1058.11 379.667 1044.27 384 1029.94 384ZM1141.27 394.5C1130.94 394.5 1122.27 391 1115.27 384C1107.94 377.333 1104.27 367 1104.27 353C1104.27 341 1106.94 328.167 1112.27 314.5C1117.6 300.5 1124.94 286.833 1134.27 273.5C1143.6 259.833 1154.1 247.5 1165.77 236.5C1177.77 225.167 1190.27 216.167 1203.27 209.5C1216.6 202.833 1229.77 199.5 1242.77 199.5C1255.77 199.5 1266.6 203 1275.27 210C1283.94 216.667 1288.27 225.667 1288.27 237C1288.27 245.333 1285.94 251 1281.27 254C1276.94 257 1271.1 258.5 1263.77 258.5C1264.44 255.833 1264.94 253 1265.27 250C1265.94 246.667 1266.27 243.667 1266.27 241C1266.27 233.333 1264.44 226.833 1260.77 221.5C1257.1 215.833 1250.77 213 1241.77 213C1232.44 213 1222.94 216.333 1213.27 223C1203.6 229.333 1194.27 238 1185.27 249C1176.27 259.667 1168.27 271.333 1161.27 284C1154.27 296.667 1148.77 309.167 1144.77 321.5C1140.77 333.833 1138.77 344.833 1138.77 354.5C1138.77 367.5 1143.27 374 1152.27 374C1159.94 374 1168.27 370.5 1177.27 363.5C1186.27 356.167 1195.44 347 1204.77 336C1214.44 324.667 1223.6 313 1232.27 301C1240.94 289 1248.6 278 1255.27 268C1256.6 266 1257.44 265 1257.77 265C1259.77 265.333 1262.27 266 1265.27 267C1268.6 268 1271.44 269.333 1273.77 271C1276.1 272.667 1277.27 274.833 1277.27 277.5C1277.27 280.5 1275.77 284.667 1272.77 290C1269.77 295 1266.44 300.833 1262.77 307.5C1259.1 314.167 1255.77 321 1252.77 328C1249.77 334.667 1248.27 341 1248.27 347C1248.27 352 1249.6 357 1252.27 362C1254.94 366.667 1259.27 369 1265.27 369C1274.27 369 1286.1 362.5 1300.77 349.5C1315.44 336.167 1330.27 316.333 1345.27 290L1350.27 295C1343.27 313 1334.27 328.833 1323.27 342.5C1312.27 356.167 1300.44 366.833 1287.77 374.5C1275.44 382.167 1263.27 386 1251.27 386C1238.94 386 1229.77 382.333 1223.77 375C1218.1 367.667 1215.27 359.667 1215.27 351C1215.27 349 1215.44 346.833 1215.77 344.5C1216.1 341.833 1216.44 339.167 1216.77 336.5C1202.44 355.833 1189.27 370.333 1177.27 380C1165.6 389.667 1153.6 394.5 1141.27 394.5Z" fill="black"/>
<path d="M364.106 84.9468C348.632 76.1047 332.053 73.8942 314.369 78.3152C292.264 84.9468 272.369 101.526 256.895 120.315C260.211 97.1047 255.79 78.3152 243.632 61.7363C225.948 38.5257 196.106 26.3678 161.843 28.5784C132.001 30.7889 109.895 45.1573 98.8426 69.4731C87.79 93.7889 91.1058 126.947 104.369 154.578C86.6847 150.157 66.79 153.473 48.0005 165.631C21.4742 182.21 6.00049 209.842 6.00049 235.263C6.00049 249.631 12.6321 262.894 22.5794 272.842C34.7373 282.789 49.1058 288.315 63.4742 288.315C64.5794 288.315 65.6847 288.315 65.6847 288.315C80.0531 288.315 94.4216 283.894 107.685 278.368C101.053 289.421 96.6321 301.578 95.5268 314.842C92.211 342.473 103.264 366.789 124.264 383.368C135.316 391.105 148.579 395.526 161.843 395.526C180.632 395.526 199.422 387.789 212.685 372.315C221.527 362.368 225.948 351.315 228.158 340.263C235.895 351.315 246.948 360.157 261.316 365.684C272.369 370.105 283.422 372.315 295.579 372.315C323.211 372.315 349.737 360.157 365.211 338.052C378.474 318.157 380.685 297.157 372.948 278.368C366.316 261.789 351.948 247.42 333.158 237.473C339.79 236.368 346.422 235.263 353.053 231.947C381.79 218.684 401.685 189.947 402.79 158.999C405.001 128.052 390.632 100.42 364.106 84.9468ZM389.527 156.789C388.422 183.315 371.843 206.526 347.527 218.684C333.158 225.315 318.79 225.315 301.106 223.105C298.895 223.105 296.685 224.21 295.579 225.315C294.474 226.42 293.369 227.526 293.369 228.631C292.264 231.947 294.474 236.368 298.895 236.368C327.632 242.999 351.948 260.684 360.79 281.684C366.316 297.157 364.106 312.631 354.158 328.105C336.474 353.526 298.895 363.473 266.843 351.315C249.158 344.684 237.001 329.21 230.369 312.631C230.369 302.684 228.158 292.736 227.053 283.894C227.053 279.473 225.948 276.157 225.948 272.842C225.948 269.526 221.527 266.21 218.211 267.315C214.895 267.315 211.579 269.526 210.474 273.947C209.369 287.21 211.579 302.684 217.106 317.052C218.211 334.736 214.895 350.21 203.843 363.473C186.158 383.368 155.211 387.789 134.211 372.315C117.632 360.157 108.79 339.157 111.001 317.052C113.211 296.052 124.264 277.263 138.632 263.999C141.948 261.789 145.264 260.684 148.579 258.473L153.001 256.263C154.106 256.263 154.106 255.157 155.211 255.157C156.316 254.052 157.422 252.947 158.527 251.842C159.632 249.631 159.632 247.421 158.527 246.315L157.422 245.21L156.316 244.105H155.211C154.106 244.105 153.001 244.105 151.895 244.105C150.79 244.105 150.79 244.105 149.685 244.105C144.158 246.315 139.737 248.526 135.316 251.842C134.211 252.947 133.106 254.052 133.106 255.157C112.106 266.21 91.1058 276.157 70.1058 277.263C57.9479 277.263 46.8952 273.947 39.1584 266.21C31.4215 258.473 27.0005 248.526 27.0005 238.578C25.8952 217.578 40.2637 194.368 62.3689 179.999C81.1584 167.842 99.9479 165.631 115.422 173.368C118.737 174.473 122.053 176.684 124.264 179.999C127.579 182.21 132.001 182.21 134.211 178.894C135.316 177.789 135.316 176.684 135.316 175.578C136.422 173.368 135.316 171.157 134.211 170.052C112.106 142.42 105.474 104.842 116.527 78.3152C125.369 58.4205 143.053 47.3678 167.369 45.1573C197.211 42.9468 222.632 52.8942 237.001 72.7889C252.474 93.7889 252.474 121.42 237.001 158.999C235.895 162.315 237.001 166.736 240.316 167.842C243.632 170.052 248.053 167.842 249.158 164.526C262.422 137.999 290.053 102.631 322.106 93.7889C336.474 89.3678 349.737 91.5784 361.895 99.3152C379.58 109.263 391.737 131.368 389.527 156.789Z" fill="black"/>
<path d="M312.157 149.052C308.841 150.158 306.631 151.263 304.42 154.579C303.315 154.579 303.315 155.684 302.21 156.789C299.999 159 294.473 160.105 291.157 161.21C288.947 162.316 286.736 162.316 285.631 163.421C280.105 165.631 275.683 167.842 270.157 168.947C266.841 170.052 263.526 171.158 259.105 173.368C252.473 175.579 245.841 178.895 240.315 183.316C234.789 176.684 228.157 172.263 219.315 170.052H218.21C212.683 167.842 208.262 166.737 203.841 166.737C203.841 161.21 202.736 152.368 202.736 149.052C201.631 143.526 200.526 136.895 199.42 131.368C198.315 125.842 196.105 119.21 196.105 113.684C197.21 112.579 198.315 111.473 199.42 109.263C200.526 104.842 200.526 100.421 197.21 97.1051C193.894 94.8945 190.578 93.7893 187.262 94.8945C183.947 94.8945 181.736 97.1051 180.631 100.421C179.526 102.631 179.526 104.842 179.526 108.158C179.526 110.368 181.736 112.579 182.841 113.684C183.947 120.316 185.052 126.947 187.262 133.579C188.368 139.105 190.578 144.631 190.578 149.052C191.683 153.473 191.683 160.105 191.683 164.526C191.683 164.526 190.578 164.526 190.578 165.631C189.473 165.631 188.368 166.737 188.368 167.842C186.157 168.947 185.052 170.052 182.841 171.158C180.631 168.947 179.526 166.737 177.315 163.421C176.21 161.21 173.999 160.105 172.894 157.895C170.683 155.684 169.578 152.368 167.368 150.158C165.157 145.737 161.841 142.421 159.631 138C158.526 136.895 158.526 135.789 157.42 134.684C155.21 131.368 151.894 126.947 148.578 123.631C148.578 121.421 147.473 118.105 145.262 115.895C143.052 113.684 139.736 111.473 136.42 112.579C135.315 112.579 134.21 112.579 133.105 112.579C130.894 112.579 128.683 114.789 127.578 117C127.578 117 127.578 117 127.578 118.105C126.473 120.316 125.368 122.526 125.368 124.737C125.368 128.052 127.578 130.263 130.894 131.368C131.999 132.473 134.21 134.684 135.315 134.684C136.42 134.684 136.42 134.684 137.526 134.684H138.631C140.841 136.895 143.052 140.21 144.157 142.421C145.262 143.526 145.262 144.631 146.368 145.737C148.578 149.052 150.789 153.473 154.105 156.789C156.315 160.105 157.42 162.316 159.631 165.631C160.736 167.842 162.947 170.052 165.157 172.263C167.368 174.473 170.683 178.895 171.789 180C168.473 184.421 166.262 188.842 164.052 193.263C160.736 193.263 158.526 193.263 155.21 193.263C150.789 193.263 147.473 193.263 144.157 193.263C133.105 192.158 119.841 192.158 105.473 192.158C105.473 191.052 104.368 189.947 103.262 188.842C99.9466 186.631 94.4203 186.631 91.1045 189.947C87.7887 193.263 85.5782 197.684 87.7887 203.21C88.894 207.631 93.315 210.947 96.6308 210.947C97.7361 210.947 97.7361 210.947 98.8414 210.947C102.157 210.947 105.473 209.842 106.578 206.526V205.421C120.947 205.421 131.999 206.526 143.052 206.526C145.262 206.526 146.368 206.526 148.578 206.526C150.789 206.526 154.105 206.526 156.315 206.526C157.42 206.526 159.631 206.526 160.736 206.526C160.736 207.631 160.736 207.631 160.736 208.737C158.526 208.737 156.315 209.842 155.21 209.842C151.894 210.947 148.578 210.947 145.262 212.052C137.526 213.158 128.683 215.368 119.841 218.684C118.736 218.684 116.526 219.789 114.315 219.789C112.105 220.895 108.789 220.895 106.578 222C103.262 219.789 99.9466 218.684 97.7361 219.789C92.2098 220.895 88.894 225.316 87.7887 230.842C87.7887 236.368 89.9993 240.789 95.5256 241.895C96.6308 241.895 97.7361 243 99.9466 243C103.262 243 106.578 240.789 108.789 238.579C109.894 237.473 109.894 236.368 109.894 235.263C112.105 234.158 114.315 234.158 117.631 233.052C119.841 233.052 122.052 231.947 123.157 231.947C131.999 229.737 139.736 227.526 147.473 226.421C150.789 225.316 154.105 225.316 156.315 224.21C158.526 224.21 160.736 223.105 162.947 223.105C165.157 229.737 169.578 235.263 175.105 239.684C172.894 241.895 171.789 245.21 168.473 249.631C167.368 251.842 166.262 252.947 166.262 252.947C162.947 257.368 160.736 262.895 157.42 267.316C155.21 270.631 154.105 273.947 152.999 276.158H151.894C149.683 276.158 147.473 277.263 146.368 278.368C141.947 280.579 139.736 286.105 140.841 291.631C141.947 296.052 146.368 299.368 151.894 300.473C152.999 300.473 152.999 300.473 154.105 300.473C161.841 300.473 165.157 296.052 166.262 291.631C166.262 289.421 166.262 287.21 165.157 283.895C167.368 280.579 168.473 277.263 170.683 273.947C172.894 269.526 176.21 264 178.42 260.684C178.42 259.579 179.526 258.473 181.736 256.263C182.841 254.052 186.157 249.631 188.368 247.421C190.578 248.526 192.789 249.631 193.894 249.631C191.683 254.052 190.578 259.579 188.368 267.316C188.368 268.421 187.262 269.526 187.262 270.631C186.157 272.842 186.157 276.158 185.052 278.368C183.947 281.684 183.947 285 182.841 287.21C180.631 288.316 178.42 290.526 176.21 292.737C173.999 297.158 175.105 302.684 178.42 306C180.631 308.21 182.841 309.316 186.157 309.316C188.368 309.316 189.473 309.316 191.683 308.21C196.105 306 199.42 302.684 199.42 298.263C199.42 294.947 198.315 292.737 196.105 290.526C197.21 287.21 197.21 285 198.315 281.684C198.315 279.473 199.42 277.263 199.42 275.052C199.42 273.947 200.526 272.842 200.526 270.631C201.631 266.21 204.947 255.158 207.157 251.842C208.262 251.842 208.262 250.737 208.262 250.737C213.789 249.631 219.315 248.526 224.841 246.316C227.052 250.737 230.368 255.158 234.789 260.684C235.894 262.895 238.105 264 238.105 266.21C239.21 268.421 241.42 270.631 242.526 272.842C244.736 276.158 248.052 279.473 250.262 282.789L251.368 283.895L250.262 285C248.052 290.526 252.473 296.052 255.789 298.263C257.999 299.368 260.21 300.473 262.42 300.473C264.631 300.473 267.947 299.368 270.157 297.158C274.578 293.842 274.578 288.316 273.473 285C271.262 281.684 267.947 278.368 263.526 278.368L262.42 277.263C262.42 276.158 261.315 276.158 261.315 275.052C261.315 273.947 260.21 273.947 260.21 272.842C257.999 268.421 254.683 265.105 252.473 261.789C251.368 259.579 249.157 258.473 248.052 256.263C246.947 255.158 245.841 252.947 243.631 250.737C240.315 247.421 235.894 240.789 233.683 236.368C234.789 235.263 235.894 234.158 236.999 233.052L238.105 231.947C240.315 234.158 243.631 236.368 246.947 239.684C248.052 240.789 250.262 241.895 250.262 243L251.368 244.105C255.789 248.526 260.21 251.842 264.631 255.158C263.526 258.473 266.841 262.895 270.157 262.895C272.368 264 273.473 265.105 275.683 265.105H276.789C280.105 265.105 284.526 262.895 285.631 257.368C286.736 254.052 285.631 249.631 282.315 247.421C280.105 245.21 276.789 244.105 273.473 244.105C267.947 240.789 263.526 236.368 259.105 231.947L257.999 230.842C256.894 229.737 255.789 228.631 253.578 227.526C251.368 225.316 245.841 220.895 243.631 218.684C244.736 215.368 245.841 212.052 245.841 209.842C250.262 209.842 254.683 208.737 259.105 207.631C261.315 207.631 263.526 206.526 265.736 206.526C270.157 205.421 274.578 205.421 278.999 205.421C282.315 205.421 285.631 204.316 288.947 204.316C291.157 205.421 293.368 206.526 296.683 206.526H297.789C303.315 205.421 306.631 202.105 306.631 196.579C306.631 192.158 304.42 188.842 301.105 186.631C296.683 184.421 292.262 184.421 288.947 187.737C287.841 188.842 286.736 189.947 285.631 192.158C283.42 192.158 280.105 193.263 277.894 193.263C273.473 193.263 267.947 194.368 263.526 195.473C261.315 195.473 259.105 196.579 256.894 196.579C253.578 197.684 249.157 197.684 245.841 198.789C245.841 197.684 244.736 195.473 244.736 194.368C244.736 194.368 244.736 194.368 244.736 193.263C250.262 188.842 255.789 186.631 262.42 184.421C265.736 183.316 269.052 182.21 272.368 180C277.894 177.789 283.42 175.579 287.841 174.473C288.947 173.368 291.157 173.368 293.368 172.263C296.683 171.158 299.999 170.052 302.21 168.947C303.315 168.947 304.42 170.052 305.526 170.052C306.631 170.052 306.631 170.052 307.736 170.052C308.841 170.052 309.947 171.158 311.052 171.158C312.157 171.158 313.262 171.158 314.368 171.158C318.789 170.052 322.105 165.631 319.894 157.895C322.105 150.158 316.578 147.947 312.157 149.052ZM186.157 301.579C186.157 300.473 186.157 300.473 186.157 301.579ZM196.105 237.473C187.262 235.263 176.21 224.21 173.999 214.263C173.999 213.158 173.999 212.052 173.999 210.947C173.999 203.21 177.315 194.368 182.841 187.737C188.368 182.21 193.894 177.789 196.105 177.789C197.21 177.789 197.21 177.789 198.315 177.789C199.42 177.789 201.631 178.895 204.947 178.895C192.789 180 187.262 184.421 185.052 189.947C182.841 192.158 181.736 194.368 180.631 196.579C175.105 206.526 176.21 217.579 181.736 225.316C188.368 233.052 198.315 237.473 209.368 237.473C210.473 237.473 212.683 237.473 213.789 237.473C209.368 238.579 202.736 238.579 196.105 237.473ZM219.315 220.895C210.473 224.21 198.315 222 192.789 215.368C189.473 210.947 190.578 205.421 192.789 202.105C192.789 201 193.894 201 193.894 199.895C194.999 198.789 197.21 197.684 197.21 196.579C199.42 195.473 200.526 194.368 202.736 195.473C206.052 195.473 208.262 194.368 209.368 192.158C210.473 192.158 211.578 192.158 212.683 192.158C221.526 192.158 227.052 201 227.052 208.737C228.157 214.263 224.841 218.684 219.315 220.895Z" fill="black"/>
</g>
<defs>
<clipPath id="clip0_2633_66">
<rect width="1360" height="411" fill="white"/>
</clipPath>
</defs>
</svg>
